<svg fill="none" height="49" viewBox="0 0 179 49" width="179" xmlns="http://www.w3.org/2000/svg"><g fill="#0365c0"><path d="m67.4732 10.5513v5.3309h-.6501v-4.7783h-5.591v4.7783h-.6501v-5.3309z"/><path d="m69.5861 15.8822h-.6501v-5.3309h4.2257c1.5603 0 2.2104.455 2.2104 1.6252 0 1.2027-.6176 1.4628-2.2104 1.4628h-3.6081v2.2429zm0-2.7305h3.8357c.9101 0 1.3002-.1625 1.3002-1.0077 0-.8126-.3575-1.0401-1.3652-1.0401h-3.7707z"/><path d="m81.7757 15.8822h-2.7629c-1.6903 0-2.3404-.4551-2.3404-1.8203v-1.6578c0-1.3652.5526-1.8853 2.3404-1.8853h2.7629c1.5278 0 2.2754.3576 2.2754 1.8853v1.6578c-.0325 1.5278-.6176 1.8203-2.2754 1.8203zm-.0325-4.8433h-2.7629c-1.1702 0-1.6903.2925-1.6903 1.3327v1.6903c0 1.0077.455 1.3002 1.6903 1.3002h2.7629c1.3327 0 1.6253-.26 1.6253-1.3002v-1.6903c0-1.0727-.3576-1.3327-1.6253-1.3327z"/><path d="m85.4487 10.5513h5.591v.5526h-4.9409v1.7553h4.8109v.5525h-4.8109v1.9504h4.9409v.5201h-5.591z"/><path d="m93.1526 15.8824h-.6502v-5.2984h.6502v2.2429h1.0401l3.9982-2.2429h1.1377l-4.4533 2.5029 4.5508 2.7955h-1.1377l-4.0632-2.503h-1.0726z"/><path d="m106.968 10.5513v.5526h-3.088v4.7783h-.65v-4.7783h-3.023v-.5526z"/><path d="m108.885 15.8824h-.65v-5.2984h.65v2.2754h5.558v-2.2754h.651v5.2984h-.651v-2.4704h-5.558z"/><path d="m121.595 15.8822h-2.763c-1.691 0-2.341-.4551-2.341-1.8203v-1.6578c0-1.3652.553-1.8853 2.341-1.8853h2.763c1.527 0 2.275.3576 2.275 1.8853v1.6578c0 1.5278-.618 1.8203-2.275 1.8203zm0-4.8433h-2.763c-1.171 0-1.691.2925-1.691 1.3327v1.6903c0 1.0077.455 1.3002 1.691 1.3002h2.763c1.332 0 1.625-.26 1.625-1.3002v-1.6903c-.033-1.0727-.39-1.3327-1.625-1.3327z"/><path d="m128.128 13.3792h-2.893v.52h2.893z"/><path d="m61.1345 25.2115h.065l4.9733-4.8758h1.2352v5.2984h-.6501v-4.9083h-.2275l-4.9733 4.9083h-1.0727v-5.2984h.6501z"/><path d="m69.6506 25.6336h-.6501v-5.3309h.6501v2.3079h5.5909v-2.3079h.6502v5.3309h-.6502v-2.4704h-5.5909z"/><path d="m82.8151 23.0332h-1.1377l-3.6731 2.6004h-1.0077l4.1282-2.8604-4.0632-2.4705h1.0727l3.6406 2.2104h1.0402v-2.2104h.6501v2.2104h1.0727l3.6406-2.2104h1.0402l-4.0632 2.4705 4.1607 2.8604h-1.0402l-3.6406-2.6004h-1.1702v2.6004h-.6501z"/><path d="m91.1696 25.2115h.0651l4.9733-4.8758h1.2677v5.2984h-.6501v-4.9083h-.26l-4.9734 4.9083h-1.0727v-5.2984h.6501z"/><path d="m99.6862 25.6336h-.6501v-5.3309h.6501v2.3079h5.5908v-2.3079h.65v5.3309h-.65v-2.4704h-5.5908z"/><path d="m108.007 25.2115h.065l4.973-4.8758h1.268v5.2984h-.65v-4.9083h-.26l-4.973 4.9083h-1.073v-5.2984h.65z"/><path d="m116.492 25.6341h-.65v-5.2984h4.226c1.56 0 2.21.4551 2.21 1.6253 0 1.2027-.618 1.4627-2.21 1.4627h-3.609v2.2104zm0-2.7305h3.836c.91 0 1.3-.1625 1.3-1.0076 0-.8127-.358-1.0402-1.365-1.0402h-3.771z"/><path d="m124.26 25.2115h.065l4.973-4.8758h1.236v5.2984h-.651v-4.9083h-.227l-4.973 4.9083h-1.073v-5.2984h.65z"/><path d="m132.777 25.6336h-.651v-5.3309h.651v2.3079h5.558v-2.3079h.683v5.3309h-.683v-2.4704h-5.558z"/><path d="m145.941 20.3027v.5526h-4.745v4.7783h-.651v-5.3309z"/><path d="m152.41 25.6339h-2.731c-1.69 0-2.34-.4551-2.34-1.8203v-1.6578c0-1.3652.552-1.8853 2.34-1.8853h2.763c1.528 0 2.276.3576 2.276 1.8853v1.6578c-.033 1.5278-.618 1.8203-2.308 1.8203zm0-4.8433h-2.763c-1.17 0-1.691.2925-1.691 1.3327v1.6903c0 1.0077.456 1.3002 1.691 1.3002h2.763c1.332 0 1.625-.26 1.625-1.3002v-1.6903c0-1.0727-.39-1.3327-1.625-1.3327z"/><path d="m156.148 20.3357h4.681c1.495 0 2.178.4551 2.178 1.3652 0 .8127-.488 1.0727-.78 1.1377.195.0325.975.2926.975 1.2352 0 1.1702-.748 1.5603-2.21 1.5603h-4.844zm.651 2.2429h4.258c.845 0 1.3-.1626 1.3-.8452 0-.5851-.358-.8776-1.3-.8776h-4.258zm0 2.5354h4.42c.845 0 1.301-.2925 1.301-1.0402 0-.7151-.488-.9426-1.366-.9426h-4.388v1.9828z"/><path d="m164.144 25.6336 3.251-5.3309h1.007l3.251 5.3309h-.748l-.812-1.3327h-4.421l-.813 1.3327zm5.623-1.8528-1.852-3.0555-1.853 3.0555z"/><path d="m175.229 23.4237-2.015 2.2104h-.91l2.145-2.2104c-1.235 0-1.885-.4551-1.885-1.4627 0-1.2027.65-1.6253 2.21-1.6253h4.226v5.2984h-.65v-2.2104zm3.153-2.5679h-3.835c-.911 0-1.301.2925-1.301 1.1052 0 .8126.358.9426 1.366.9426h3.77z"/><path d="m61.0695 35.3853h-.6501v-5.3309h.6501v2.2754h1.0402l3.9982-2.2754h1.1377l-4.4533 2.5355 4.5508 2.7954h-1.1377l-4.0632-2.5029h-1.0727z"/><path d="m73.4544 35.3854h-2.7629c-1.6903 0-2.3404-.4551-2.3404-1.8203v-1.6578c0-1.3652.5526-1.8853 2.3404-1.8853h2.7629c1.5278 0 2.2754.3575 2.2754 1.8853v1.6578c0 1.5277-.6176 1.8203-2.2754 1.8203zm0-4.8433h-2.7629c-1.1702 0-1.6903.2925-1.6903 1.3327v1.6903c0 1.0076.4551 1.3002 1.6903 1.3002h2.7629c1.3328 0 1.6253-.2601 1.6253-1.3002v-1.6903c0-1.0727-.3901-1.3327-1.6253-1.3327z"/><path d="m78.5247 30.0544 3.1855 4.5508 3.1856-4.5508h1.3977v5.3309h-.6501v-4.8758h-.3901l-3.3805 4.8758h-.3251l-3.3806-4.8758h-.39v4.8758h-.6501v-5.3309z"/><path d="m94.7779 30.0544v5.3309h-.6501v-4.7783h-5.591v4.7783h-.6501v-5.3309z"/><path d="m95.7856 35.3853 3.2506-5.3309h1.0078l3.25 5.3309h-.747l-.813-1.3327h-4.4206l-.8126 1.3327zm5.5914-1.8528-1.8532-3.0555-1.8528 3.0555z"/><path d="m105.082 35.3853h-.65v-5.3309h.65v2.3079h5.558v-2.3079h.683v5.3309h-.683v-2.4704h-5.558z"/><path d="m113.404 34.963h.065l4.973-4.8758h1.235v5.2984h-.65v-4.9084h-.228l-4.973 4.9084h-1.073v-5.2984h.651z"/><path d="m123.708 33.1752-2.016 2.2104h-.91l2.146-2.2104c-1.236 0-1.886-.4551-1.886-1.4628 0-1.2027.65-1.6252 2.211-1.6252h4.225v5.2984h-.65v-2.2104zm3.12-2.568h-3.835c-.911 0-1.301.2926-1.301 1.1052 0 .8127.358.9427 1.366.9427h3.77z"/><path d="m4.05615 36.4253 19.99085-3.9006-6.8261-11.637z"/><path d="m43.9399 36.1007-13.3598-15.3751-6.6636 11.767z"/><path d="m23.9809 1.61206-6.7612 19.21074h13.4898z"/></g><path d="m23.9489 47.3472c12.6743 0 22.9489-10.2745 22.9489-22.9489 0-12.6743-10.2746-22.94884-22.9489-22.94884s-22.9489 10.27454-22.9489 22.94884c0 12.6744 10.2746 22.9489 22.9489 22.9489z" stroke="#0365c0" stroke-width="2"/></svg>