<svg width="15" height="15" viewBox="0 0 15 15" xmlns="http://www.w3.org/2000/svg"><path d="M7.49968 0C4.62948 0 2.29443 2.33538 2.29443 5.20567C2.29443 7.96856 7.01725 14.4237 7.21834 14.697L7.40602 14.9524C7.42797 14.9824 7.46291 15 7.49968 15C7.53702 15 7.57175 14.9824 7.59392 14.9524L7.78148 14.697C7.98269 14.4237 12.7054 7.96856 12.7054 5.20567C12.7054 2.33538 10.37 0 7.49968 0ZM7.49968 3.34101C8.52809 3.34101 9.36435 4.1773 9.36435 5.20567C9.36435 6.2335 8.52805 7.07033 7.49968 7.07033C6.47189 7.07033 5.63502 6.2335 5.63502 5.20567C5.63502 4.1773 6.47185 3.34101 7.49968 3.34101Z" fill="#fff"/></svg>