<svg width="18" height="18" viewBox="0 0 18 18" xmlns="http://www.w3.org/2000/svg"><path d="M8.99923 0C5.55498 0 2.75293 2.80246 2.75293 6.2468C2.75293 9.56228 8.42031 17.3084 8.66162 17.6364L8.88683 17.9429C8.91317 17.9789 8.95511 18 8.99923 18C9.04404 18 9.0857 17.9789 9.11231 17.9429L9.33739 17.6364C9.57884 17.3084 15.2461 9.56228 15.2461 6.2468C15.2461 2.80246 12.4436 0 8.99923 0ZM8.99923 4.00921C10.2333 4.00921 11.2368 5.01276 11.2368 6.2468C11.2368 7.48021 10.2333 8.4844 8.99923 8.4844C7.76587 8.4844 6.76164 7.48021 6.76164 6.2468C6.76164 5.01276 7.76583 4.00921 8.99923 4.00921Z" fill="#0365C0"/></svg>