<svg width="15" height="15" viewBox="0 0 15 15" xmlns="http://www.w3.org/2000/svg"><path d="M14.9928 11.8351C15.0246 12.0786 14.9504 12.2903 14.7705 12.4702L12.6586 14.5663C12.5633 14.6721 12.4389 14.7622 12.2854 14.8362C12.1319 14.9103 11.9811 14.958 11.8329 14.9791C11.8223 14.9791 11.7905 14.9818 11.7376 14.9871C11.6847 14.9924 11.6159 14.9951 11.5312 14.9951C11.33 14.9951 11.0045 14.9607 10.5545 14.8919C10.1046 14.823 9.55416 14.6536 8.90315 14.3837C8.25199 14.1138 7.51362 13.7088 6.68792 13.1689C5.86221 12.6291 4.98352 11.888 4.05193 10.9458C3.31089 10.2154 2.69688 9.51667 2.20991 8.84976C1.72295 8.18279 1.33125 7.56614 1.03484 6.99978C0.738394 6.43341 0.516082 5.91997 0.367874 5.45947C0.219666 4.99897 0.119096 4.60198 0.0661643 4.26851C0.0132329 3.93504 -0.00793972 3.67303 0.00264657 3.48248C0.0132329 3.29193 0.018526 3.18606 0.018526 3.16489C0.0396986 3.01668 0.0873369 2.86583 0.161441 2.71233C0.235545 2.55883 0.325529 2.43444 0.431391 2.33916L2.54336 0.227195C2.69157 0.0789869 2.86095 0.00488281 3.0515 0.00488281C3.18912 0.00488281 3.31086 0.0445814 3.41673 0.123979C3.52259 0.203376 3.61257 0.301299 3.68668 0.417748L5.38578 3.64127C5.48105 3.81065 5.50752 3.99591 5.46517 4.19705C5.42283 4.39819 5.33285 4.56757 5.19522 4.7052L4.41713 5.48329C4.39596 5.50446 4.37743 5.53887 4.36155 5.58651C4.34567 5.63414 4.33773 5.67384 4.33773 5.7056C4.38008 5.92791 4.47536 6.18198 4.62356 6.46781C4.7506 6.72189 4.94645 7.03154 5.2111 7.39676C5.47576 7.76199 5.85157 8.18277 6.33854 8.65915C6.81493 9.14617 7.23838 9.52458 7.6089 9.79458C7.97934 10.0644 8.28909 10.263 8.53787 10.39C8.78665 10.5171 8.9772 10.5938 9.10951 10.6202L9.30795 10.6599C9.32912 10.6599 9.3636 10.652 9.41119 10.6361C9.45883 10.6202 9.49323 10.6017 9.51443 10.5805L10.4195 9.6595C10.6102 9.49015 10.8324 9.40546 11.0865 9.40546C11.2665 9.40546 11.4094 9.43719 11.5152 9.50074H11.5311L14.5958 11.311C14.8182 11.4487 14.9505 11.6233 14.9928 11.8351Z" fill="#fff"/></svg>