<svg width="15" height="15" viewBox="0 0 15 15" xmlns="http://www.w3.org/2000/svg"><g clip-path="url(#clip0)"><path d="M12.6272 8.94178C12.2998 8.6024 11.9049 8.42094 11.4864 8.42094C11.0712 8.42094 10.6729 8.59904 10.332 8.93842L9.26545 9.99688C9.17769 9.94984 9.08994 9.90616 9.00556 9.86248C8.88405 9.80199 8.76929 9.74487 8.67141 9.68438C7.67233 9.05266 6.76439 8.22941 5.89357 7.16422C5.47167 6.63331 5.18815 6.1864 4.98226 5.73277C5.25903 5.48075 5.51555 5.21866 5.76532 4.96664C5.85982 4.87256 5.95433 4.77511 6.04884 4.68102C6.75764 3.97538 6.75764 3.0614 6.04884 2.35575L5.12739 1.43842C5.02276 1.33425 4.91475 1.22672 4.81349 1.1192C4.61098 0.910863 4.39834 0.695809 4.17895 0.494196C3.85155 0.171615 3.46002 0.000244141 3.04824 0.000244141C2.63646 0.000244141 2.23818 0.171615 1.90065 0.494196C1.89728 0.497556 1.89728 0.497556 1.8939 0.500916L0.746318 1.65347C0.314286 2.08358 0.0678927 2.60777 0.0138887 3.21597C-0.0671173 4.19715 0.223154 5.11113 0.445921 5.70925C0.992711 7.17766 1.80952 8.53855 3.02799 9.99688C4.50635 11.7543 6.2851 13.142 8.317 14.1199C9.09331 14.4861 10.1295 14.9196 11.2872 14.9935C11.3581 14.9969 11.4324 15.0002 11.4999 15.0002C12.2795 15.0002 12.9343 14.7213 13.4474 14.1669C13.4508 14.1602 13.4575 14.1568 13.4609 14.1501C13.6364 13.9384 13.8389 13.7469 14.0516 13.5419C14.1967 13.4041 14.3452 13.2597 14.4903 13.1084C14.8245 12.7623 15 12.3591 15 11.9458C15 11.5291 14.8211 11.1293 14.4802 10.7933L12.6272 8.94178ZM13.8355 12.4801C13.8322 12.4801 13.8322 12.4834 13.8355 12.4801C13.7039 12.6212 13.5689 12.7489 13.4238 12.89C13.2044 13.0984 12.9816 13.3168 12.7723 13.5621C12.4314 13.925 12.0298 14.0963 11.5032 14.0963C11.4526 14.0963 11.3986 14.0963 11.348 14.093C10.3455 14.0291 9.41396 13.6394 8.71528 13.3067C6.80489 12.386 5.12739 11.0789 3.73341 9.42229C2.58245 8.04124 1.8129 6.76436 1.30323 5.39339C0.989336 4.5567 0.874577 3.90481 0.925206 3.28989C0.958959 2.89675 1.11084 2.57081 1.39099 2.29191L2.54195 1.14608C2.70734 0.991508 2.88285 0.907502 3.05499 0.907502C3.26763 0.907502 3.43977 1.03519 3.54778 1.14272C3.55115 1.14608 3.55453 1.14944 3.5579 1.1528C3.76379 1.34433 3.95956 1.54258 4.16545 1.75428C4.27008 1.8618 4.37809 1.96933 4.48609 2.08022L5.40754 2.99756C5.76532 3.35374 5.76532 3.68304 5.40754 4.03922C5.30966 4.13667 5.21515 4.23412 5.11727 4.3282C4.83375 4.61718 4.56373 4.886 4.27008 5.14809C4.26333 5.15481 4.25658 5.15817 4.2532 5.16489C3.96293 5.45387 4.01694 5.73613 4.07769 5.92766C4.08107 5.93774 4.08444 5.94782 4.08782 5.95791C4.32746 6.53586 4.66498 7.08022 5.17802 7.72874L5.1814 7.7321C6.11297 8.87457 7.09516 9.76503 8.17862 10.4472C8.317 10.5345 8.45876 10.6051 8.59377 10.6723C8.71528 10.7328 8.83004 10.7899 8.92792 10.8504C8.94142 10.8571 8.95493 10.8672 8.96843 10.8739C9.08319 10.931 9.19119 10.9579 9.30258 10.9579C9.58272 10.9579 9.75824 10.7832 9.81562 10.7261L10.9699 9.57686C11.0847 9.46261 11.267 9.32484 11.4796 9.32484C11.6889 9.32484 11.861 9.45589 11.9656 9.57014C11.969 9.5735 11.969 9.5735 11.9724 9.57686L13.8322 11.4283C14.1798 11.7711 14.1798 12.1239 13.8355 12.4801Z" fill="#fff"/></g><defs><clipPath id="clip0"><rect width="15" height="15" fill="#fff"/></clipPath></defs></svg>