<svg width="142" height="39" fill="none" viewBox="0 0 142 39" xmlns="http://www.w3.org/2000/svg"><mask id="mask0" mask-type="alpha" maskUnits="userSpaceOnUse" x="0" y="0" width="142" height="39"><path d="M53.3983 8.17432V12.3764H52.8859V8.6099H48.4788V12.3764H47.9663V8.17432H53.3983Z" fill="#4E6894"/><path d="M55.0642 12.3764H54.5518V8.17432H57.8827C59.1126 8.17432 59.625 8.53303 59.625 9.45545C59.625 10.4035 59.1382 10.6085 57.8827 10.6085H55.0386V12.3764H55.0642ZM55.0642 10.2241H58.0877C58.8051 10.2241 59.1126 10.096 59.1126 9.42983C59.1126 8.78926 58.8307 8.6099 58.0364 8.6099H55.0642V10.2241Z" fill="#4E6894"/><path d="M64.6727 12.3764H62.4947C61.1624 12.3764 60.6499 12.0177 60.6499 10.9416V9.63479C60.6499 8.55864 61.0855 8.14868 62.4947 8.14868H64.6727C65.8769 8.14868 66.4663 8.43053 66.4663 9.63479V10.9416C66.4406 12.1458 65.9794 12.3764 64.6727 12.3764ZM64.647 8.55865H62.4691C61.5467 8.55865 61.1367 8.78925 61.1367 9.60918V10.9416C61.1367 11.7359 61.4955 11.9665 62.4691 11.9665H64.647C65.6976 11.9665 65.9282 11.7615 65.9282 10.9416V9.60918C65.9282 8.76363 65.6463 8.55865 64.647 8.55865Z" fill="#4E6894"/><path d="M67.5679 8.17432H71.975V8.6099H68.0803V9.99353H71.8725V10.4291H68.0803V11.9665H71.975V12.3764H67.5679V8.17432Z" fill="#4E6894"/><path d="M73.6404 12.3764H73.1279V8.19995H73.6404V9.96791H74.4603L77.6119 8.19995H78.5087L74.9984 10.1729L78.5856 12.3764H77.6888L74.4859 10.4035H73.6404V12.3764Z" fill="#4E6894"/><path d="M84.5302 8.17432V8.6099H82.096V12.3764H81.5836V8.6099H79.2007V8.17432H84.5302Z" fill="#4E6894"/><path d="M86.0418 12.3764H85.5293V8.19995H86.0418V9.99354H90.4232V8.19995H90.9357V12.3764H90.4232V10.4291H86.0418V12.3764Z" fill="#4E6894"/><path d="M96.0604 12.3764H93.8824C92.5501 12.3764 92.0376 12.0177 92.0376 10.9416V9.63479C92.0376 8.55864 92.4732 8.14868 93.8824 8.14868H96.0604C97.2646 8.14868 97.8539 8.43053 97.8539 9.63479V10.9416C97.8539 12.1458 97.3671 12.3764 96.0604 12.3764ZM96.0604 8.55865H93.8824C92.96 8.55865 92.5501 8.78925 92.5501 9.60918V10.9416C92.5501 11.7359 92.9088 11.9665 93.8824 11.9665H96.0604C97.1109 11.9665 97.3415 11.7615 97.3415 10.9416V9.60918C97.3159 8.76363 97.034 8.55865 96.0604 8.55865Z" fill="#4E6894"/><path d="M101.211 10.4036H98.9302V10.8135H101.211V10.4036Z" fill="#4E6894"/><path d="M48.4021 19.7304H48.4533L52.3736 15.887H53.3473V20.0635H52.8348V16.1944H52.6555L48.7352 20.0635H47.8896V15.887H48.4021V19.7304Z" fill="#4E6894"/><path d="M55.115 20.0632H54.6025V15.8611H55.115V17.6803H59.5221V15.8611H60.0345V20.0632H59.5221V18.1159H55.115V20.0632Z" fill="#4E6894"/><path d="M65.4922 18.0134H64.5954L61.7001 20.0632H60.9058L64.1598 17.8084L60.957 15.8611H61.8026L64.6723 17.6034H65.4922V15.8611H66.0047V17.6034H66.8502L69.72 15.8611H70.5399L67.3371 17.8084L70.6168 20.0632H69.7968L66.9271 18.0134H66.0047V20.0632H65.4922V18.0134Z" fill="#4E6894"/><path d="M72.0774 19.7304H72.1286L76.0489 15.887H77.0482V20.0635H76.5357V16.1944H76.3308L72.4105 20.0635H71.5649V15.887H72.0774V19.7304Z" fill="#4E6894"/><path d="M78.7908 20.0632H78.2783V15.8611H78.7908V17.6803H83.1979V15.8611H83.7103V20.0632H83.1979V18.1159H78.7908V20.0632Z" fill="#4E6894"/><path d="M85.3499 19.7304H85.4011L89.3214 15.887H90.3207V20.0635H89.8082V16.1944H89.6032L85.683 20.0635H84.8374V15.887H85.3499V19.7304Z" fill="#4E6894"/><path d="M92.0374 20.0635H91.5249V15.887H94.8558C96.0857 15.887 96.5982 16.2457 96.5982 17.1681C96.5982 18.1161 96.1114 18.3211 94.8558 18.3211H92.0117V20.0635H92.0374ZM92.0374 17.9112H95.0608C95.7783 17.9112 96.0857 17.783 96.0857 17.1168C96.0857 16.4763 95.8039 16.2969 95.0096 16.2969H92.0374V17.9112Z" fill="#4E6894"/><path d="M98.1614 19.7304H98.2126L102.133 15.887H103.107V20.0635H102.594V16.1944H102.415L98.4945 20.0635H97.6489V15.887H98.1614V19.7304Z" fill="#4E6894"/><path d="M104.874 20.0632H104.362V15.8611H104.874V17.6803H109.256V15.8611H109.794V20.0632H109.256V18.1159H104.874V20.0632Z" fill="#4E6894"/><path d="M115.251 15.8611V16.2967H111.511V20.0632H110.998V15.8611H115.251Z" fill="#4E6894"/><path d="M120.351 20.0632H118.198C116.866 20.0632 116.354 19.7045 116.354 18.6283V17.3216C116.354 16.2454 116.789 15.8354 118.198 15.8354H120.376C121.581 15.8354 122.17 16.1173 122.17 17.3216V18.6283C122.144 19.8326 121.683 20.0632 120.351 20.0632ZM120.351 16.2454H118.173C117.25 16.2454 116.84 16.476 116.84 17.2959V18.6283C116.84 19.4226 117.199 19.6532 118.173 19.6532H120.351C121.401 19.6532 121.632 19.4482 121.632 18.6283V17.2959C121.632 16.4504 121.324 16.2454 120.351 16.2454Z" fill="#4E6894"/><path d="M123.297 15.887H126.987C128.166 15.887 128.704 16.2457 128.704 16.9631C128.704 17.6037 128.319 17.8087 128.089 17.8599C128.243 17.8855 128.857 18.0905 128.857 18.8336C128.857 19.756 128.268 20.0635 127.115 20.0635H123.297V15.887ZM123.81 17.6549H127.166C127.833 17.6549 128.191 17.5268 128.191 16.9887C128.191 16.5275 127.909 16.2969 127.166 16.2969H123.81V17.6549ZM123.81 19.6535H127.294C127.961 19.6535 128.319 19.4229 128.319 18.8336C128.319 18.2699 127.935 18.0905 127.243 18.0905H123.784V19.6535H123.81Z" fill="#4E6894"/><path d="M129.6 20.0632L132.162 15.8611H132.957L135.519 20.0632H134.93L134.289 19.0127H130.804L130.164 20.0632H129.6ZM134.033 18.6027L132.572 16.1942L131.112 18.6027H134.033Z" fill="#4E6894"/><path d="M138.338 18.3211L136.749 20.0635H136.032L137.723 18.3211C136.749 18.3211 136.237 17.9624 136.237 17.1681C136.237 16.2201 136.749 15.887 137.979 15.887H141.31V20.0635H140.798V18.3211H138.338ZM140.823 16.2969H137.8C137.082 16.2969 136.775 16.5275 136.775 17.1681C136.775 17.8087 137.057 17.9112 137.851 17.9112H140.823V16.2969Z" fill="#4E6894"/><path d="M48.3508 27.75H47.8384V23.5479H48.3508V25.3414H49.1708L52.3223 23.5479H53.2191L49.7088 25.5464L53.296 27.75H52.3992L49.1964 25.777H48.3508V27.75Z" fill="#4E6894"/><path d="M58.1131 27.75H55.9352C54.6028 27.75 54.0903 27.3912 54.0903 26.3151V25.0083C54.0903 23.9322 54.5259 23.5222 55.9352 23.5222H58.1131C59.3174 23.5222 59.9067 23.8041 59.9067 25.0083V26.3151C59.9067 27.5194 59.4198 27.75 58.1131 27.75ZM58.1131 23.9322H55.9352C55.0128 23.9322 54.6028 24.1628 54.6028 24.9827V26.3151C54.6028 27.1094 54.9615 27.34 55.9352 27.34H58.1131C59.1636 27.34 59.3942 27.135 59.3942 26.3151V24.9827C59.3942 24.1372 59.0868 23.9322 58.1131 23.9322Z" fill="#4E6894"/><path d="M62.1101 23.5479L64.6211 27.135L67.1321 23.5479H68.2339V27.75H67.7214V23.9066H67.414L64.7492 27.75H64.493L61.8282 23.9066H61.5208V27.75H61.0083V23.5479H62.1101Z" fill="#4E6894"/><path d="M74.9218 23.5479V27.75H74.4093V23.9834H70.0022V27.75H69.4897V23.5479H74.9218Z" fill="#4E6894"/><path d="M75.7158 27.75L78.2781 23.5479H79.0724L81.6346 27.75H81.0453L80.4048 26.6994H76.9201L76.2795 27.75H75.7158ZM80.1229 26.2895L78.6624 23.8809L77.2019 26.2895H80.1229Z" fill="#4E6894"/><path d="M83.0437 27.75H82.5312V23.5479H83.0437V25.3671H87.4252V23.5479H87.9633V27.75H87.4252V25.8026H83.0437V27.75Z" fill="#4E6894"/><path d="M89.6033 27.4169H89.6545L93.5748 23.5735H94.5485V27.75H94.036V23.881H93.8566L89.9364 27.75H89.0908V23.5735H89.6033V27.4169Z" fill="#4E6894"/><path d="M97.7255 26.0076L96.1369 27.75H95.4194L97.1105 26.0076C96.1369 26.0076 95.6244 25.6489 95.6244 24.8546C95.6244 23.9066 96.1369 23.5735 97.3668 23.5735H100.698V27.75H100.185V26.0076H97.7255ZM100.185 23.9834H97.1618C96.4443 23.9834 96.1369 24.2141 96.1369 24.8546C96.1369 25.4952 96.4187 25.5977 97.213 25.5977H100.185V23.9834Z" fill="#4E6894"/><path d="M3.40869 28.5699L19.1666 25.4952L13.7859 16.3223L3.40869 28.5699Z" fill="#4E6894"/><path d="M34.8475 28.3139L24.3166 16.1943L19.064 25.4697L34.8475 28.3139Z" fill="#4E6894"/><path d="M19.1152 1.12817L13.7856 16.2712H24.4191L19.1152 1.12817Z" fill="#4E6894"/><path d="M19.0896 37.1792C29.0802 37.1792 37.1792 29.0802 37.1792 19.0896C37.1792 9.09899 29.0802 1 19.0896 1C9.09899 1 1 9.09899 1 19.0896C1 29.0802 9.09899 37.1792 19.0896 37.1792Z" stroke="#4E6894" stroke-width="2"/></mask><g mask="url(#mask0)"><rect x="-3" y="-6" width="147" height="47" fill="#0365C0"/></g></svg>